<?xml version="1.0" encoding="UTF-8" standalone="no"?>
        <svg 
    viewBox="10.3271484375 -86.0595703125 446.4111328125 57.2021484375"
    width="436.083984375"
    height="143.26171875"
   xmlns="http://www.w3.org/2000/svg"
   xmlns:svg="http://www.w3.org/2000/svg">
   <path d="M58.37-42.92L58.37-89.58L58.37-97.34L78.44-89.58L88.48-89.58L88.48-101.22L56.25-101.22Q52.22-94.41 47.02-86.50Q41.82-78.59 36.91-72.58L36.91-72.58Q46.00-66.87 51.27-58.89Q56.54-50.90 58.37-42.92L58.37-42.92ZM10.33 14.43L10.33-116.53L10.33-124.66L32.23-116.53L37.50-116.53L47.24-125.98L66.14-108.91Q64.45-106.79 59.40-106.79L59.40-106.79L58.67-105.47L88.48-105.47L88.48-126.93L114.33-124.37Q114.11-122.75 113.01-121.69Q111.91-120.63 108.76-120.12L108.76-120.12L108.76-105.47L118.95-105.47L129.27-119.53Q129.27-119.53 131.14-117.99Q133.01-116.46 135.90-114.00Q138.79-111.55 141.94-108.80Q145.09-106.05 147.58-103.64L147.58-103.64Q146.92-101.22 143.26-101.22L143.26-101.22L108.76-101.22L108.76-89.58L117.11-89.58L125.83-98.88L143.70-85.47Q143.04-84.74 141.72-83.94Q140.41-83.13 138.28-82.62L138.28-82.62L138.28-39.77Q138.21-39.26 135.50-38.16Q132.79-37.06 129.02-36.15Q125.24-35.23 122.09-35.23L122.09-35.23L118.65-35.23L118.65-43.07L109.94-43.07Q113.96-34.42 120.45-28.56Q126.93-22.71 134.40-19.04Q141.87-15.38 148.97-13.33L148.97-13.33L148.68-12.01Q142.82-10.18 138.87-4.76Q134.91 0.66 133.37 8.13L133.37 8.13Q126.78 2.05 122.06-4.91Q117.33-11.87 114.11-20.73Q110.89-29.59 108.76-41.53L108.76-41.53L108.76 7.03Q108.76 8.13 106.27 9.78Q103.78 11.43 100.01 12.78Q96.24 14.14 92.43 14.14L92.43 14.14L88.48 14.14L88.48-19.63Q79.83-10.84 68.33-3.99Q56.84 2.86 42.77 7.98L42.77 7.98L41.53 6.30Q55.52-2.71 65.59-15.78Q75.66-28.86 81.15-43.07L81.15-43.07L77.56-43.07L77.56-39.62Q77.56-38.67 75.11-37.24Q72.66-35.82 68.88-34.72Q65.11-33.62 61.08-33.62L61.08-33.62L59.25-33.62Q59.03-23.00 53.98-16.66Q48.93-10.33 36.47-10.18L36.47-10.18Q36.47-14.36 35.93-19.26Q35.38-24.17 34.50-26.07L34.50-26.07Q33.40-28.27 30.32-29.74L30.32-29.74L30.32 8.13Q30.32 8.86 28.34 10.36Q26.37 11.87 22.71 13.15Q19.04 14.43 13.92 14.43L13.92 14.43L10.33 14.43ZM88.48-47.24L88.48-64.53L77.56-64.53L77.56-47.24L88.48-47.24ZM118.65-64.53L108.76-64.53L108.76-47.24L118.65-47.24L118.65-64.53ZM77.56-68.70L88.48-68.70L88.48-85.33L77.56-85.33L77.56-68.70ZM108.76-85.33L108.76-68.70L118.65-68.70L118.65-85.33L108.76-85.33ZM38.82-112.35L30.32-112.35L30.32-32.23L35.23-32.23Q37.13-32.23 38.23-33.03L38.23-33.03Q40.80-34.64 40.80-40.65L40.80-40.65Q40.80-48.41 39.11-56.73Q37.43-65.04 33.18-72.14L33.18-72.14Q34.20-77.20 35.34-84.30Q36.47-91.41 37.43-98.88Q38.38-106.35 38.82-112.35L38.82-112.35ZM181.05-80.86L183.03-81.45Q195.19-71.48 202.26-61.05Q209.33-50.61 212.11-40.94Q214.89-31.27 214.23-23.66Q213.57-16.04 210.39-11.61Q207.20-7.18 202.29-7.18Q197.39-7.18 191.67-12.89L191.67-12.89Q192.26-29.66 188.96-47.20Q185.67-64.75 181.05-80.86L181.05-80.86ZM161.28-90.31L160.03-94.48L213.28-94.48L213.28-125.68L241.19-123.63Q241.11-122.17 240.01-121.07Q238.92-119.97 235.77-119.38L235.77-119.38L235.77-94.48L257.89-94.48L269.82-109.79Q269.82-109.79 272.06-108.14Q274.29-106.49 277.70-103.86Q281.10-101.22 284.84-98.25Q288.57-95.29 291.58-92.72L291.58-92.72Q290.92-90.31 287.11-90.31L287.11-90.31L161.28-90.31ZM245.43-83.86L245.43-83.86L276.64-76.98Q276.12-75.51 274.84-74.41Q273.56-73.32 270.63-73.17L270.63-73.17Q266.97-63.21 261.69-50.17Q256.42-37.13 249.98-23.36Q243.53-9.59 236.43 2.56L236.43 2.56L262.21 2.56L274.66-13.18Q274.66-13.18 276.93-11.46Q279.20-9.74 282.68-7.07Q286.16-4.39 290.00-1.35Q293.85 1.68 297.00 4.32L297.00 4.32Q296.34 6.74 292.53 6.74L292.53 6.74L155.13 6.74L153.88 2.56L231.74 2.56Q233.86-7.18 235.84-18.42Q237.82-29.66 239.65-41.27Q241.48-52.88 242.94-63.79Q244.41-74.71 245.43-83.86ZM331.79-19.34L332.67-20.21Q344.68-21.24 351.93-19.23Q359.18-17.21 362.55-13.55Q365.92-9.89 366.10-5.86Q366.28-1.83 364.01 1.32Q361.74 4.47 357.68 5.46Q353.61 6.45 348.63 3.88L348.63 3.88Q346.58-2.64 341.71-9.01Q336.84-15.38 331.79-19.34L331.79-19.34ZM386.43-128.83L386.43-128.83L415.36-122.09Q414.40-118.95 409.64-118.95L409.64-118.95Q405.25-116.38 399.13-112.79Q393.02-109.20 387.16-106.20L387.16-106.20L418.65-106.20L428.39-118.95Q428.39-118.95 431.43-116.56Q434.47-114.18 438.65-110.78Q442.82-107.37 446.12-104.37L446.12-104.37Q445.46-102.03 441.87-102.03L441.87-102.03L393.02-102.03L393.02-91.04L407.37-91.04L416.38-100.78L434.84-86.87Q434.18-85.99 432.68-85.03Q431.18-84.08 428.83-83.57L428.83-83.57L428.83-41.67Q428.76-41.09 426.75-40.03Q424.73-38.96 421.69-37.94Q418.65-36.91 415.50-36.47L415.50-36.47Q414.92-33.98 410.82-33.33L410.82-33.33L410.82-27.17L418.65-27.17L428.54-40.21Q428.54-40.21 430.37-38.75Q432.20-37.28 435.02-35.01Q437.84-32.74 440.88-30.18Q443.92-27.61 446.41-25.34L446.41-25.34Q445.75-22.92 442.24-22.92L442.24-22.92L410.82-22.92L410.82-8.28Q410.82-1.61 409.13 3.04Q407.45 7.69 402.10 10.36Q396.75 13.04 385.77 13.92L385.77 13.92Q385.47 9.30 384.74 6.01Q384.01 2.71 382.18 0.44L382.18 0.44Q380.42-1.61 377.64-3.19Q374.85-4.76 368.99-5.86L368.99-5.86L368.99-7.62Q368.99-7.62 371.45-7.51Q373.90-7.40 377.34-7.21Q380.79-7.03 383.83-6.88Q386.87-6.74 388.04-6.74L388.04-6.74Q390.60-6.74 390.60-9.01L390.60-9.01L390.60-22.92L305.27-22.92L304.03-27.17L390.60-27.17L390.60-39.18L408.91-37.79L408.91-40.65L341.97-40.65L341.97-37.65Q341.97-36.69 339.51-35.23Q337.06-33.76 333.22-32.63Q329.37-31.49 325.34-31.49L325.34-31.49L322.49-31.49L322.49-99.17L343.36-91.04L353.54-91.04L353.54-102.03L305.86-102.03L304.61-106.20L350.10-106.20Q348.27-111.69 344.06-117.22Q339.84-122.75 335.67-126.12L335.67-126.12L336.77-127.08Q346.51-128.10 352.77-126.82Q359.03-125.54 362.29-122.83Q365.55-120.12 366.28-116.89Q367.02-113.67 365.73-110.74Q364.45-107.81 361.67-106.20L361.67-106.20L382.47-106.20Q383.50-111.40 384.59-117.77Q385.69-124.15 386.43-128.83ZM376.46-91.04L376.46-102.03L370.39-102.03L370.39-91.04L376.46-91.04ZM408.91-74.56L408.91-86.87L393.02-86.87L393.02-79.61Q393.02-77.71 394.19-77.71L394.19-77.71L394.92-77.71Q395.14-77.71 395.36-77.71Q395.58-77.71 396.02-77.71L396.02-77.71Q396.53-77.71 397.23-77.86Q397.92-78.00 398.36-78.44L398.36-78.44Q399.17-79.10 400.34-81.19Q401.51-83.28 402.76-85.99L402.76-85.99L404.22-85.99L404.88-78.30Q408.25-76.68 408.91-74.56L408.91-74.56ZM408.91-44.82L408.91-53.54L341.97-53.54L341.97-44.82L408.91-44.82ZM341.97-57.71L408.91-57.71L408.91-70.53Q408.11-67.60 404.30-66.28Q400.49-64.97 392.72-64.97L392.72-64.97L388.04-64.97Q382.69-64.97 380.27-66.21Q377.86-67.46 377.16-70.20Q376.46-72.95 376.46-77.42L376.46-77.42L376.46-86.87L370.17-86.87Q369.87-81.96 367.71-77.01Q365.55-72.07 359.73-67.79Q353.91-63.50 342.77-60.57L342.77-60.57L341.97-61.96L341.97-57.71ZM341.97-86.87L341.97-62.40Q349.29-67.38 351.31-73.75Q353.32-80.13 353.54-86.87L353.54-86.87L341.97-86.87Z"/>
    </svg>
        