<svg width="261" height="261" version="1.1" xmlns="http://www.w3.org/2000/svg" xmlns:xlink="http://www.w3.org/1999/xlink"><path d="M228.38 202.59L230.20 205.20L228.64 206.51Q200.71 209.12 186.09 208.07L186.09 208.07Q173.04 198.42 142.25 156.66L142.25 156.66Q139.11 152.22 137.29 150.13L137.29 150.13L137.29 221.91Q137.29 237.83 132.85 243.05L132.85 243.05L129.72 245.92Q123.71 245.66 120.32 226.60L120.32 226.60Q119.54 222.17 119.54 219.82L119.54 219.82Q119.54 217.21 121.37 210.16L121.37 210.16Q126.32 193.46 126.06 158.22L126.06 158.22Q126.06 152.74 126.06 150.13L126.06 150.13Q102.05 187.45 69.95 204.68L69.95 204.68Q65.25 207.29 60.29 209.38L60.29 209.38Q50.11 213.29 48.02 213.29L48.02 213.29Q45.68 213.29 43.07 212.77L43.07 212.77L43.07 211.99L77.00 189.02Q107.79 166.31 116.93 142.56L116.93 142.56L100.75 144.65Q100.48 144.91 99.18 148.04L99.18 148.04Q98.92 148.56 98.40 148.83L98.40 148.83L96.83 148.30Q91.09 144.65 88.22 128.99L88.22 128.99Q86.91 122.73 86.13 120.38L86.13 120.38Q81.95 106.28 75.95 95.06L75.95 95.06Q75.95 92.97 77.26 91.93L77.26 91.93Q88.74 95.06 108.58 90.10L108.58 90.10Q120.32 87.23 125.54 86.45L125.54 86.45L126.32 85.66L126.06 67.92L106.23 69.48Q101.79 69.22 98.40 67.92L98.40 67.92Q96.31 67.13 94.48 65.57L94.48 65.57Q95.27 63.22 98.14 62.43L98.14 62.43Q102.57 62.17 122.93 57.74L122.93 57.74L125.54 57.21Q125.54 42.60 115.62 29.29L115.62 29.29L115.62 25.89Q119.54 20.94 133.63 29.03L133.63 29.03Q140.42 32.94 142.25 35.81L142.25 35.81Q143.29 37.64 139.37 51.47L139.37 51.47Q139.11 52.26 138.85 52.78L138.85 52.78L159.99 46.77Q169.65 45.21 175.65 51.21L175.65 51.21Q175.65 53.82 172.26 54.87L172.26 54.87L138.59 64.52L137.29 65.57L136.76 83.58Q141.98 83.84 158.43 80.44L158.43 80.44Q169.39 78.09 177.48 78.88L177.48 78.88L190.53 87.49Q193.40 89.84 195.23 92.19L195.23 92.19Q195.23 96.10 189.75 100.80L189.75 100.80Q187.40 102.63 186.35 103.93L186.35 103.93Q184.53 106.54 175.65 126.90L175.65 126.90L170.17 137.60Q168.87 139.69 167.82 140.47L167.82 140.47Q165.47 142.30 161.04 142.30L161.04 142.30Q158.43 139.95 158.43 137.34L158.43 137.34Q143.81 137.86 137.29 139.95L137.29 139.95Q166.26 167.62 170.69 171.27L170.69 171.27Q190.79 188.50 220.81 199.72L220.81 199.72Q224.46 201.03 228.38 202.59L228.38 202.59ZM170.17 90.36L170.17 90.36L168.61 88.01Q153.99 88.01 137.29 91.41L137.29 91.41L137.29 106.80Q148.25 106.80 151.12 108.11L151.12 108.11Q153.47 109.15 154.51 110.98L154.51 110.98L155.03 113.85Q152.42 115.42 142.77 116.46L142.77 116.46L137.29 117.77L137.81 130.82Q147.73 127.68 157.12 128.47L157.12 128.47Q158.43 128.47 159.47 128.73L159.47 128.73Q167.56 103.93 170.17 90.36ZM126.06 133.17L126.32 119.85L110.40 121.42Q107.01 119.33 106.49 117.51L106.49 117.51L126.32 110.20L126.32 93.75L101.79 99.24Q97.09 100.80 93.44 102.37L93.44 102.37L100.48 138.12L126.06 133.17ZM79.61 63.22L79.61 63.22Q79.61 66.61 73.34 71.57L73.34 71.57L70.21 74.44Q59.77 85.92 57.68 88.80L57.68 88.80Q56.12 91.14 55.33 93.49L55.33 93.49Q55.33 97.15 63.16 107.85L63.16 107.85Q73.60 122.46 73.60 133.17L73.60 133.17Q73.60 140.47 69.17 145.17L69.17 145.17Q66.29 148.04 62.64 146.74L62.64 146.74Q55.85 139.69 37.58 125.60L37.58 125.60L37.32 124.29L52.46 128.47Q57.94 129.25 59.25 126.64L59.25 126.64Q59.25 119.33 51.68 105.76L51.68 105.76Q48.81 100.28 47.76 97.15L47.76 97.15L48.02 92.19L59.77 69.48Q59.77 67.39 57.16 65.57L57.16 65.57Q54.55 65.83 43.59 69.48L43.59 69.48Q43.07 69.74 42.28 70.00L42.28 70.00Q41.76 70.26 34.71 71.31L34.71 71.31Q30.28 72.09 30.28 74.70L30.28 74.70Q30.28 75.75 31.06 77.31L31.06 77.31L29.49 179.62L29.75 205.20Q28.71 223.99 23.23 226.60L23.23 226.60Q20.62 226.34 17.23 220.60L17.23 220.60Q10.96 211.20 14.88 194.50L14.88 194.50Q17.49 182.23 17.75 179.62L17.75 179.62Q23.23 141.26 20.88 102.63L20.88 102.63Q20.36 92.45 19.05 84.88L19.05 84.88Q18.79 82.01 13.83 65.83L13.83 65.83Q12.53 62.17 12.01 59.30L12.01 59.30Q17.75 55.91 27.14 63.22L27.14 63.22Q28.19 64.00 29.23 65.04L29.23 65.04Q47.50 62.96 62.38 52.52L62.38 52.52Q70.47 52.52 79.61 63.22Z" stroke="#000" fill="black" /></svg>