<svg version="1.1" id="Layer_1" xmlns="http://www.w3.org/2000/svg" xmlns:xlink="http://www.w3.org/1999/xlink" x="0px" y="0px"
	 width="100%" viewBox="0 0 720 1024" enable-background="new 0 0 720 1024" xml:space="preserve">
<path fill="#000000" opacity="1.000000" stroke="none" 
	d="
M261.021729,435.942780 
	C266.199829,415.963806 271.652710,396.061066 277.735840,376.336853 
	C279.403625,370.929108 281.203369,365.558044 283.108856,360.229584 
	C283.908905,357.992340 284.993866,355.565887 288.126892,357.717865 
	C289.467621,358.638702 290.265137,357.898010 291.051636,356.929108 
	C291.847076,355.949158 293.085968,355.060577 294.049957,355.924988 
	C298.555908,359.965393 300.760651,356.531433 303.156769,353.385101 
	C303.443604,353.008423 303.937378,352.789337 304.296478,352.525635 
	C310.615051,355.205994 316.909821,356.917053 323.550201,353.758148 
	C324.416626,353.345978 325.487396,353.162292 326.454010,353.191132 
	C350.572601,353.910339 374.685211,355.304596 398.770813,356.009949 
	C413.073029,356.428741 427.178894,358.387909 441.421417,358.758667 
	C445.402893,358.862305 449.379730,359.274078 453.348053,359.655243 
	C454.298004,359.746490 455.597137,359.998505 456.071136,360.655792 
	C460.365204,366.610779 467.261658,365.842773 473.216675,367.442169 
	C478.240540,368.791473 483.908813,368.557648 487.181427,373.875366 
	C487.629150,374.602936 489.275726,374.636444 490.388092,374.904694 
	C506.594116,378.813049 523.149109,380.511322 539.639587,382.597076 
	C542.590210,382.970245 544.829346,383.783203 545.039673,387.585693 
	C544.995117,388.000153 544.950256,388.040344 544.950256,388.040344 
	C541.101562,390.947845 537.219849,387.444427 533.385132,388.070343 
	C532.038757,389.087769 532.511841,390.524078 532.497742,391.795563 
	C532.255920,413.634033 529.064697,435.236511 527.318909,456.954132 
	C527.173340,458.765167 526.753845,460.608368 524.561340,460.261108 
	C521.332336,459.749695 522.239990,457.222778 522.618347,455.119019 
	C526.337036,434.442383 528.250366,413.589783 528.650391,392.595520 
	C528.695984,390.199707 529.138916,387.718079 525.678223,386.626678 
	C520.336182,384.941956 518.095398,386.001099 516.329224,392.589233 
	C513.310120,403.850677 511.105377,415.302399 509.396332,426.825439 
	C508.079559,435.703491 507.041595,444.642029 506.395386,453.590942 
	C506.135223,457.193939 502.705292,459.554047 503.245850,463.397949 
	C505.976837,464.229950 507.043152,463.427948 507.831512,460.652618 
	C512.165955,445.393799 514.702759,429.818024 516.664795,414.118835 
	C517.552185,407.018372 518.603333,399.937225 520.417847,393.001160 
	C520.983704,390.838287 521.393860,388.421448 524.013794,388.039246 
	C525.728943,389.102814 525.466187,390.333160 525.102905,391.412384 
	C519.742126,407.336395 519.448547,424.158051 516.375122,440.485443 
	C515.205261,446.700165 514.333923,452.981750 512.888184,459.129761 
	C512.036743,462.750488 513.411560,463.665649 516.562317,463.668121 
	C518.559937,463.669708 520.557251,463.828918 522.555054,463.910461 
	C524.562744,463.992401 526.417175,464.647797 526.437683,466.887878 
	C526.458069,469.110321 524.444275,469.138763 522.750244,469.302734 
	C520.616089,469.509399 518.490112,469.800598 516.383606,470.499023 
	C519.196594,470.499023 522.009888,470.525146 524.822449,470.489899 
	C526.722412,470.466125 528.206177,471.069214 528.292847,473.167053 
	C528.375000,475.154968 526.674683,475.641174 525.210144,475.766541 
	C519.746765,476.234161 514.232300,475.890259 508.789642,476.921844 
	C507.784698,477.112366 506.219116,476.646790 505.558411,475.907013 
	C503.789551,473.926270 502.169708,473.486847 499.502716,474.329895 
	C496.872131,475.161469 493.254395,470.557190 494.880066,468.524902 
	C499.819092,462.350555 498.727753,454.893066 499.572357,447.988068 
	C501.631378,431.153473 502.319733,414.154114 505.657501,397.468445 
	C505.951233,396.000244 506.296997,394.541626 506.652466,393.086823 
	C507.080353,391.335571 507.254730,388.890778 509.587433,389.132629 
	C512.241943,389.407806 510.857422,392.075378 511.536743,394.261292 
	C512.429688,390.696930 513.194580,387.643494 513.993347,384.455170 
	C510.216095,382.143860 506.071198,382.611694 502.253235,381.754974 
	C491.861328,379.423157 481.405945,377.358185 471.065674,374.820740 
	C466.956238,373.812317 464.335449,374.568329 463.919891,378.893555 
	C463.202789,386.357269 457.601379,391.978119 456.655548,399.403412 
	C456.199493,402.983704 457.290527,403.924713 460.439880,403.919769 
	C464.384094,403.913605 468.218689,404.368958 472.214935,402.982208 
	C475.568115,401.818634 479.225464,403.123322 481.707367,405.989014 
	C482.900085,407.366150 481.981354,408.920135 480.705780,409.885101 
	C477.603638,412.231781 472.608856,414.000916 470.623413,411.714203 
	C467.007996,407.550323 462.959290,408.732086 458.927856,408.192261 
	C458.274414,408.104736 457.597107,408.199310 456.930786,408.203308 
	C454.861298,408.215637 453.429504,409.733063 453.681366,411.293427 
	C454.539429,416.609833 446.157959,420.249786 451.107117,426.087646 
	C452.500977,427.731750 454.030121,429.335571 455.751648,430.615692 
	C468.448456,440.056885 474.969238,453.165985 478.157196,468.224060 
	C478.890106,471.685760 480.134613,474.201721 483.653137,475.840546 
	C486.616699,477.220825 489.737000,479.551819 486.122498,483.544189 
	C485.545166,484.181885 485.294250,485.085419 485.866547,485.849274 
	C489.266083,490.386597 485.542175,491.653015 482.482544,492.973816 
	C477.706512,495.035614 472.806763,495.843079 467.455780,495.391724 
	C457.771057,494.574860 448.785004,497.228180 439.727814,500.960754 
	C431.255798,504.452148 423.142181,508.972076 413.985474,510.970001 
	C407.013306,512.491272 400.401489,515.417053 394.228271,519.168640 
	C392.427185,520.263123 390.480865,521.554932 388.371521,519.673462 
	C388.000702,517.761292 389.495667,517.399841 390.620636,516.835388 
	C399.101105,512.580200 407.585510,508.332214 416.782654,505.763611 
	C419.288086,505.063904 421.060028,503.208099 422.889313,501.538055 
	C425.366272,499.276703 428.027039,497.297394 430.901917,495.595734 
	C441.970764,489.043854 443.896423,482.216522 436.155121,471.949554 
	C429.697632,463.385193 422.081421,455.511230 410.867950,453.187134 
	C395.281952,449.956818 381.860229,453.454620 373.103333,467.529572 
	C371.714752,469.761414 371.519135,471.160889 373.368988,473.585236 
	C380.648376,483.125214 379.389130,485.228760 374.517029,492.549561 
	C371.577271,496.966858 368.742462,498.449615 363.828064,498.460175 
	C359.203308,498.470093 354.588318,499.567139 349.955475,500.057831 
	C342.095795,500.890320 334.389099,500.210236 326.372009,496.452423 
	C327.311523,502.031616 323.655609,506.020355 324.974060,510.920807 
	C325.371246,512.397156 324.887421,513.599182 326.669250,514.804626 
	C328.755005,516.215698 328.013031,519.044861 327.810211,521.349976 
	C327.701569,522.585022 327.196136,523.686157 325.788422,523.818604 
	C324.348938,523.953979 323.789062,522.880615 323.399719,521.718079 
	C322.883698,520.177246 322.770264,518.312012 320.426178,518.359436 
	C318.372162,518.401062 318.455811,520.301880 317.619659,521.429138 
	C311.975098,529.038757 306.291901,536.619507 301.994720,545.331421 
	C302.746002,546.866394 304.930878,544.804932 305.831665,546.854675 
	C303.099457,550.217712 302.391663,554.682861 300.761505,558.780640 
	C299.966278,560.779724 298.948395,563.458313 296.374176,560.145935 
	C294.278503,563.814636 294.159546,568.646545 290.366760,572.358826 
	C289.074951,568.654419 290.914093,565.912842 291.834839,563.201111 
	C294.604919,555.042908 297.269714,546.838562 300.974243,539.020874 
	C303.202789,534.317871 305.878632,529.928406 309.282806,526.011047 
	C315.320282,519.063293 317.926117,510.369324 321.417023,502.149963 
	C322.745178,499.022827 321.770020,496.391693 318.155792,494.986298 
	C313.819733,493.300293 309.555725,491.390411 305.385590,489.324951 
	C298.263672,485.797485 297.746124,484.532440 299.614594,476.096375 
	C291.219086,477.353058 282.975891,477.591980 274.733398,477.224243 
	C269.748566,477.001831 264.781738,476.321106 259.796936,476.168732 
	C253.750839,475.983917 251.432526,471.922363 249.614349,466.907623 
	C250.884415,464.193451 253.378464,463.767212 256.162689,463.738312 
	C261.985382,463.677887 267.729034,463.052490 273.742188,461.277893 
	C277.592163,465.981720 282.496582,464.293579 286.789093,464.717499 
	C293.219788,465.352570 296.590942,460.455963 293.838684,454.631012 
	C293.097687,453.062775 293.481873,451.711060 293.904144,450.297852 
	C296.626801,441.186340 298.013580,431.796448 299.826141,422.491089 
	C301.828644,412.210480 301.192383,401.025574 309.660278,392.844757 
	C310.292542,392.233978 310.377289,391.005035 310.607300,390.037506 
	C312.339325,382.752258 314.024597,375.455780 315.770569,368.173920 
	C316.219330,366.302368 316.413483,364.114594 319.225403,364.051056 
	C321.421326,366.467896 319.307587,368.778687 319.157959,371.094421 
	C319.068634,372.477264 317.431061,374.194550 319.227600,375.171722 
	C322.403137,376.898956 320.845978,379.064758 320.165649,381.161987 
	C319.294067,383.849030 318.112762,386.443268 317.355560,389.158539 
	C312.127899,407.904449 308.348328,427.018219 302.834198,445.703491 
	C300.882202,452.318054 298.396942,458.903351 297.675842,466.219055 
	C302.357544,466.570618 305.469086,468.077820 302.993500,473.905334 
	C307.313416,472.026001 310.489441,469.812500 314.300507,469.084961 
	C319.301270,468.130249 322.046967,464.903687 324.285919,460.334015 
	C327.930603,452.895142 331.741028,445.337067 336.765198,438.818756 
	C345.528870,427.449005 357.457581,419.941833 371.426117,416.744232 
	C378.469879,415.131836 381.125153,410.893616 382.971527,404.816315 
	C382.244598,404.351776 381.588135,403.847137 380.861298,403.483002 
	C378.157654,402.128540 375.713135,400.147766 376.369720,397.009277 
	C377.114899,393.447388 380.645264,392.666138 383.769165,392.055420 
	C385.028229,391.809265 386.407257,392.204407 387.733582,392.267426 
	C389.143402,392.334412 390.443268,392.066559 391.038605,390.583130 
	C394.366882,382.289856 398.456268,374.232361 399.216705,365.065125 
	C396.701630,363.500977 394.031219,363.509247 391.398712,363.356476 
	C375.615723,362.440491 359.838440,361.405701 344.047729,360.650940 
	C331.575195,360.054779 332.169922,357.923340 328.526031,371.697571 
	C325.172302,384.374908 323.406342,397.464813 320.324280,410.253448 
	C318.611176,417.361816 317.460724,424.609314 316.162079,431.813110 
	C315.011780,438.194336 314.078033,444.614990 312.894409,450.989594 
	C312.549805,452.845367 311.557465,454.678528 309.162750,454.023682 
	C306.802795,453.378296 306.978424,451.603363 307.541504,449.602020 
	C308.393158,446.575226 309.048706,443.487579 309.666779,440.401611 
	C314.238342,417.577576 318.810944,394.753662 323.299561,371.913239 
	C324.024689,368.223297 326.363129,364.966400 326.359741,360.357605 
	C323.161285,360.357605 320.188385,360.532104 317.245361,360.310242 
	C314.080414,360.071655 312.787567,361.265076 311.626129,364.348969 
	C304.661652,382.841766 301.399048,402.221985 297.105865,421.379547 
	C294.824677,431.558929 295.399170,442.306061 290.923584,452.008270 
	C290.080109,453.836761 290.062866,456.417633 285.771027,456.925354 
	C286.288940,445.698456 291.131287,435.747162 292.941711,425.246826 
	C294.834686,414.267975 297.225708,403.359528 299.823090,392.521973 
	C302.357025,381.949066 305.426849,371.504608 308.282990,360.923767 
	C303.577301,359.788727 301.625427,361.932281 300.403107,365.560547 
	C292.046997,390.365112 286.062195,415.791962 280.425232,441.311340 
	C280.373962,441.543457 280.575256,441.831329 280.658295,442.092133 
	C281.433929,441.903046 281.641357,440.582855 283.489655,441.488525 
	C281.664429,447.409393 280.764801,453.749268 278.144989,459.649475 
	C277.311340,461.526978 275.779602,461.822784 273.975250,461.013275 
	C273.456543,450.995544 277.073914,441.692932 279.117432,432.140259 
	C284.097382,408.860840 290.462036,385.934479 297.473999,363.187408 
	C297.560516,362.906677 297.385681,362.545319 297.288483,361.949677 
	C294.421051,360.574310 293.225342,362.585938 292.106537,364.684937 
	C289.114532,370.298309 287.033417,376.268066 285.321167,382.370148 
	C280.508331,399.522156 276.163177,416.779877 273.908752,434.491150 
	C273.593719,436.965942 272.211884,439.512054 275.040833,441.739166 
	C276.127197,442.594482 272.924591,453.358826 271.630188,454.429535 
	C270.946106,454.995422 270.167999,455.265656 269.328522,454.894287 
	C267.755768,454.198578 267.900055,452.815338 268.093475,451.472595 
	C269.113770,444.391663 270.075775,437.301178 271.198608,430.236389 
	C274.759521,407.831299 279.967682,385.841705 287.961975,364.564667 
	C288.121033,364.141357 288.064301,363.636932 288.139526,362.838257 
	C285.766235,363.398834 285.438629,365.365723 284.856628,366.888489 
	C278.428772,383.706360 273.787750,401.069427 269.244080,418.460938 
	C268.487976,421.355103 267.570343,424.208771 266.871552,427.115784 
	C265.718414,431.912628 263.788605,436.640015 265.276550,441.735535 
	C265.365356,442.039673 265.313507,442.406097 265.252380,442.729462 
	C264.688019,445.716248 265.148773,450.651642 261.710358,450.489014 
	C257.862915,450.307037 260.320526,445.671753 260.042145,442.210358 
	C260.496796,439.583008 260.759247,437.762878 261.021729,435.942780 
M428.428864,419.602509 
	C432.856567,420.931671 434.573151,420.964172 437.955597,419.603912 
	C426.491913,416.459686 416.281982,410.318512 404.772430,408.936127 
	C399.149536,408.260773 392.481201,405.580597 386.740601,412.210815 
	C401.470428,411.045380 414.337677,416.494141 428.428864,419.602509 
M279.751862,471.374817 
	C278.409790,471.629395 276.881012,470.818573 275.229858,472.402252 
	C280.586060,472.752136 285.450958,473.084259 290.308838,471.370392 
	C287.060486,471.370392 283.812103,471.370392 279.751862,471.374817 
M387.296204,398.161865 
	C385.359772,396.297791 385.359772,396.297791 381.798004,398.229004 
	C383.654816,399.455505 384.692596,403.887665 387.296204,398.161865 
z"/>
<path fill="#000000" opacity="1.000000" stroke="none" 
	d="
M84.706421,239.922394 
	C90.705132,224.742371 98.255142,210.911728 108.848831,198.912857 
	C112.307541,194.995392 116.619652,191.938965 121.404770,190.009445 
	C133.017914,185.326645 144.926178,181.675690 157.663391,181.676849 
	C169.981232,181.677979 182.273819,181.421906 194.386719,184.521118 
	C206.643311,187.657074 216.678528,193.809006 224.004425,204.268082 
	C228.867233,211.210617 234.445099,217.599243 239.204056,224.664108 
	C247.798859,237.423386 251.275940,251.614090 252.095062,266.560913 
	C253.123474,285.326813 254.272263,304.082397 253.433197,322.932190 
	C252.450287,345.013306 249.792725,366.604095 241.363480,387.300323 
	C234.483231,404.193390 227.185669,420.697388 213.868927,433.732086 
	C211.245270,436.300140 208.714218,438.909943 204.527313,439.724426 
	C207.074295,444.307953 209.138275,448.392151 215.037079,447.853699 
	C216.910797,447.682678 218.786057,448.425629 219.113449,450.695862 
	C219.404816,452.716431 217.932724,453.765228 216.342987,454.382172 
	C205.013123,458.779022 193.659470,460.783966 182.170731,454.767517 
	C178.488174,452.838989 174.686935,451.188019 171.235748,448.787720 
	C167.635910,446.284027 163.590424,447.055298 159.690002,448.137238 
	C155.202698,449.382019 150.746658,450.742676 146.295212,452.112061 
	C144.485977,452.668610 142.698395,452.745239 140.877640,452.298248 
	C139.138153,451.871185 138.397461,450.692627 138.585648,448.974365 
	C138.766068,447.326874 139.935165,446.805359 141.419327,446.790558 
	C143.039612,446.774384 144.660172,446.786896 146.405182,446.338776 
	C133.495728,447.950989 126.302963,439.439819 120.022079,430.753021 
	C114.166199,422.654114 108.630295,414.359985 101.853233,406.977600 
	C91.054321,395.214081 85.534401,380.906067 81.700943,365.704254 
	C76.016579,343.162659 72.004768,320.467651 73.846840,297.069824 
	C75.367699,277.752014 79.361633,258.914459 84.706421,239.922394 
M117.743301,419.812225 
	C119.134659,421.887268 120.378197,424.081909 121.943130,426.016541 
	C128.508041,434.132385 134.446060,443.279999 147.026764,442.076721 
	C147.956543,441.987854 149.260239,442.235046 149.855682,442.846466 
	C152.350876,445.408539 154.982651,444.226105 157.721329,443.574341 
	C162.773895,442.371918 168.426849,441.035095 172.778290,443.807556 
	C177.142929,446.588470 181.685928,448.869659 186.187714,451.319977 
	C193.569351,455.337769 200.946045,453.733734 209.399200,452.186981 
	C204.346558,449.023315 201.537628,445.300049 199.143768,441.296631 
	C196.797394,437.372650 197.809402,435.057465 202.197754,434.889984 
	C205.742722,434.754639 208.153824,433.189575 210.384857,430.825562 
	C219.835724,420.811279 227.141525,409.586823 232.737381,396.841522 
	C243.622604,372.048981 249.194397,346.469604 249.022263,319.369354 
	C248.915375,302.542603 248.192734,285.752472 247.508652,268.962646 
	C246.765976,250.734970 241.111862,234.026917 229.745819,219.490448 
	C226.674606,215.562546 223.438690,211.780090 220.483902,207.740997 
	C211.813187,195.888290 200.138016,189.046432 185.441803,187.047592 
	C174.632416,185.577408 163.772293,185.596863 153.037460,186.290314 
	C132.048416,187.646179 114.262695,194.988312 102.316574,214.076553 
	C87.484108,237.776810 81.136978,263.905121 78.522301,291.079956 
	C76.573837,311.330811 77.929062,331.610413 82.287529,351.621796 
	C86.762718,372.169189 92.790428,391.899078 107.889977,407.595734 
	C111.337669,411.179779 114.185005,415.341370 117.743301,419.812225 
z"/>
<path fill="#000000" opacity="1.000000" stroke="none" 
	d="
M264.166016,634.009399 
	C257.631805,650.842957 253.658035,667.722412 255.353287,686.420898 
	C257.345001,681.062134 258.091431,675.986328 260.864319,671.243713 
	C262.181946,674.723572 262.452942,674.955017 260.605713,680.025024 
	C258.257446,686.470398 258.708588,692.687805 260.609955,699.093628 
	C262.952271,706.985046 263.509430,715.129883 262.477448,723.260559 
	C261.687256,729.486267 263.001770,735.534119 263.355316,741.640686 
	C264.143036,755.246643 260.331970,768.470276 260.535950,782.001709 
	C260.557556,783.435425 260.788452,785.498535 257.917450,786.407043 
	C256.483734,780.204590 258.726715,773.944641 257.316528,767.998840 
	C252.197815,780.886719 252.438904,791.391174 256.586182,804.895691 
	C258.032623,809.605774 258.941162,814.466248 261.162781,818.942261 
	C262.153992,820.939331 263.247650,823.182251 265.428375,823.568054 
	C271.047119,824.562256 273.029999,829.531860 276.434967,832.480957 
	C276.660797,834.548340 274.107574,834.227051 274.394958,836.377197 
	C277.812744,837.518799 277.875885,840.206238 275.918121,843.649902 
	C280.595398,843.024292 284.588898,840.423462 288.546478,843.427795 
	C289.871826,844.433899 292.605560,844.667297 291.258575,847.216675 
	C290.163544,849.289062 287.720337,849.739014 286.064697,848.317444 
	C281.881805,844.726074 279.268555,847.697205 275.682648,850.179565 
	C287.726471,854.044189 298.279419,846.173889 310.360413,848.786011 
	C320.879700,851.060364 332.825897,846.735046 344.043243,845.338196 
	C344.355927,847.192322 344.078125,847.781006 343.373474,848.013794 
	C332.864105,851.486145 321.828186,853.864319 311.051636,852.616272 
	C302.283447,851.600830 294.411407,853.270203 286.190247,854.790039 
	C281.609436,855.636902 276.894775,856.245605 272.631683,853.424561 
	C271.296509,852.541077 270.156464,852.937073 268.908844,853.587036 
	C267.705200,854.214172 266.303253,854.728455 265.231323,853.518616 
	C263.970306,852.095398 264.906555,850.657776 265.734436,849.422058 
	C267.381226,846.963989 269.141663,844.582153 271.618866,841.093140 
	C266.461426,841.991333 262.284698,842.431641 258.099335,842.216919 
	C256.806061,842.150635 255.171997,842.421570 254.889328,840.636414 
	C254.631973,839.011108 255.974625,838.206543 257.275360,837.885986 
	C262.059540,836.706970 266.234039,833.364563 271.848755,834.248230 
	C271.567261,831.073059 269.829193,828.962219 267.632721,828.330200 
	C260.852905,826.379211 257.233673,821.368896 255.692871,815.308960 
	C253.425171,806.390198 248.736328,797.945923 249.715942,788.309021 
	C250.018555,785.332092 250.201584,782.324097 250.779877,779.397644 
	C252.294296,771.734131 253.694443,764.064392 254.810501,756.324585 
	C255.264191,753.178223 255.667221,748.913879 260.618927,748.585754 
	C261.028137,745.819641 260.230438,743.054138 259.814209,740.269592 
	C258.902344,734.169495 258.674255,728.149597 259.528107,721.956543 
	C260.226379,716.891602 260.175598,711.586853 259.516113,706.510620 
	C258.883759,701.643066 257.040619,696.932800 255.516174,691.375549 
	C253.543427,702.339722 257.796021,712.100342 257.925323,722.146973 
	C254.963791,722.274536 254.963104,720.611450 254.611771,719.176208 
	C247.765076,691.207153 249.578262,663.860596 259.342834,636.725647 
	C265.072296,620.803894 273.704010,606.389343 280.913330,591.244080 
	C283.302429,586.225037 285.520111,581.297424 285.742065,575.667786 
	C285.775177,574.828125 285.968719,574.005920 287.770691,573.485840 
	C289.576355,577.620117 288.700989,581.980286 287.602631,585.829346 
	C285.699371,592.498962 283.012756,598.849243 281.837555,605.849670 
	C281.158203,609.896118 280.316040,614.253662 278.417908,618.357056 
	C275.125610,625.474548 274.824371,633.526489 274.413177,641.320679 
	C273.860748,651.790771 272.907593,662.257751 273.342834,672.765869 
	C273.383453,673.746948 273.479889,674.786499 272.427094,675.602173 
	C269.706543,675.993347 269.802429,673.951416 269.671051,672.134827 
	C268.766937,659.630798 270.576630,647.237671 271.146454,634.792542 
	C271.487549,627.342773 274.297882,620.307678 274.397675,612.763428 
	C270.524506,619.525879 265.982422,625.886169 264.166016,634.009399 
z"/>
<path fill="#000000" opacity="1.000000" stroke="none" 
	d="
M531.963501,836.031921 
	C540.283691,832.498474 545.793396,825.776978 550.844666,818.762695 
	C553.836304,814.608398 556.498596,810.032227 558.324341,805.268311 
	C560.798950,798.811340 560.836609,791.327820 559.338989,785.146484 
	C557.520325,777.640259 557.475037,770.034363 555.781921,762.635254 
	C554.113281,755.342712 552.492676,748.036743 549.442322,741.133728 
	C547.464050,736.656860 546.944702,731.852539 546.838196,726.989380 
	C546.795654,725.049622 547.255554,722.959839 545.533325,721.138977 
	C542.172974,721.545654 541.201538,726.778320 536.827698,725.795715 
	C536.587524,722.897034 538.857178,721.626831 540.143921,719.854919 
	C545.003540,713.162781 549.324097,705.997986 548.482178,697.505005 
	C547.654053,689.150513 545.635803,680.860901 539.438965,674.423828 
	C537.312744,672.215149 536.130676,669.439331 534.843933,666.741516 
	C532.265320,661.335266 529.765381,655.895874 526.487427,650.854187 
	C524.653381,648.033325 523.106262,644.896057 522.953308,641.605042 
	C522.697937,636.107666 521.026489,631.206604 518.514160,626.428406 
	C517.458984,624.421631 516.715698,622.183044 519.365051,619.148865 
	C521.020447,626.123169 525.537109,631.176697 526.108215,637.694885 
	C526.606201,643.378235 529.029358,648.200867 531.582275,653.064270 
	C534.054871,657.774536 536.904114,662.294983 538.686218,667.355286 
	C539.124878,668.600891 539.532776,670.171753 540.485046,670.870483 
	C546.188416,675.055725 547.119446,681.677246 549.604919,687.581970 
	C552.833008,695.251160 553.289490,702.643555 549.510498,710.209656 
	C548.403076,712.426941 547.758545,714.875366 546.734558,717.675354 
	C549.935242,718.467896 550.575195,720.999207 550.528748,723.885010 
	C550.419861,730.649902 552.198792,736.892273 554.729675,743.179199 
	C558.660706,752.943604 560.164917,763.311707 561.214172,773.817505 
	C562.049072,782.177124 564.013733,790.296997 562.821045,798.909424 
	C561.573730,807.916199 556.231506,814.778687 552.177002,822.263428 
	C547.179993,831.487915 539.175232,837.451233 529.214600,841.211304 
	C522.929749,843.583740 517.745422,848.285339 511.330872,850.843079 
	C507.659637,852.306946 504.406921,853.511658 500.421143,853.145630 
	C497.303131,852.859253 494.112427,853.379272 490.953156,853.522278 
	C489.275818,853.598206 487.152649,853.815979 487.250153,851.442993 
	C487.343567,849.169067 489.442139,849.409119 491.129272,849.501770 
	C492.126923,849.556519 493.126190,849.584229 494.123108,849.648743 
	C504.730377,850.334595 514.274719,847.629150 522.837036,841.177979 
	C525.449707,839.209534 528.667053,838.043579 531.802124,836.256348 
	C531.996704,836.002563 531.963501,836.031921 531.963501,836.031921 
z"/>
<path fill="#000000" opacity="1.000000" stroke="none" 
	d="
M407.427246,869.567993 
	C405.542358,870.178406 403.932281,870.456299 403.227081,868.642822 
	C402.655609,867.173218 403.848236,866.123840 404.909424,865.342224 
	C406.240570,864.361816 407.750824,863.628540 409.124847,862.701294 
	C411.862152,860.854004 414.354065,859.128235 415.014404,855.249634 
	C415.961334,849.687622 422.014099,847.517334 427.252563,850.030518 
	C430.537872,851.606628 434.140839,850.658264 437.548248,850.184204 
	C441.698792,849.606750 445.832947,849.463806 449.976868,849.822021 
	C452.638397,850.052063 455.087158,850.849487 455.947693,854.621582 
	C447.526367,852.739380 439.548279,852.082397 431.142151,854.882507 
	C433.643738,857.866882 433.650513,861.149231 431.794067,865.640625 
	C436.664642,863.479248 439.445831,860.570251 443.101349,859.264160 
	C445.139832,858.535828 446.859283,858.337036 447.622955,860.560181 
	C449.005432,864.584839 451.868317,865.165588 455.533752,864.685974 
	C457.115295,864.479126 459.259644,864.113220 459.735016,866.246704 
	C460.244781,868.534607 457.912933,868.421082 456.542358,869.200256 
	C451.620819,871.998108 446.068726,869.515747 441.035126,871.246094 
	C439.007416,871.943115 436.734131,872.041077 434.823730,872.943481 
	C428.282257,876.033142 424.600189,875.307800 419.783966,869.391968 
	C418.324768,867.599609 416.499847,867.071289 414.470093,867.475708 
	C412.205963,867.926697 410.018738,868.763855 407.427246,869.567993 
M427.847168,866.744080 
	C427.808624,865.136780 428.428040,863.425293 426.872253,861.719482 
	C425.072021,862.026245 423.371857,862.787659 421.153992,864.494507 
	C424.019653,865.074707 423.268646,870.997864 427.847168,866.744080 
z"/>
<path fill="#000000" opacity="1.000000" stroke="none" 
	d="
M445.994080,685.844971 
	C444.412415,690.353516 443.850891,694.672607 444.450439,698.968628 
	C444.806213,701.518005 444.032288,702.391663 441.393585,701.953003 
	C442.389679,704.554016 442.847931,706.677612 445.452484,707.957581 
	C446.620941,702.716858 445.603638,696.857239 450.090942,692.934998 
	C452.068298,693.902832 451.581818,695.400513 451.173553,696.542908 
	C448.932312,702.814148 450.277039,708.422119 454.389893,713.358093 
	C456.238678,715.576965 455.978333,717.033936 453.965302,718.031799 
	C456.197021,726.249817 464.553986,728.817810 468.417267,735.461609 
	C464.033234,734.249573 459.710815,732.222778 457.309998,728.859985 
	C451.323578,720.474792 443.171021,713.756958 438.632782,704.285461 
	C434.306152,695.255615 431.886139,686.047363 433.580200,675.845215 
	C435.461029,664.518616 436.047729,653.046448 435.737274,641.542725 
	C435.683319,639.544983 434.891846,637.148926 437.988129,635.538757 
	C440.238281,642.021240 438.856171,648.463623 438.664795,654.743652 
	C438.469849,661.142029 437.570251,667.517090 438.198578,674.553772 
	C441.534393,668.981445 441.862244,662.321655 447.987518,659.222900 
	C446.312622,667.935791 440.205505,675.384277 441.650085,684.276306 
	C439.671234,686.404785 438.672333,683.835022 437.280060,684.152100 
	C435.521118,685.347534 437.049500,693.263062 440.199097,697.423523 
	C441.735199,687.521423 444.135712,678.408386 449.526947,670.493958 
	C450.069794,670.669617 450.612671,670.845276 451.155518,671.020874 
	C449.479095,675.841675 447.802643,680.662415 445.994080,685.844971 
z"/>
<path fill="#000000" opacity="1.000000" stroke="none" 
	d="
M417.132080,466.896912 
	C422.609650,469.528015 422.798248,470.767944 418.399323,474.091095 
	C414.388336,477.121094 412.170837,482.246765 406.421448,483.329132 
	C401.016357,484.346680 396.501709,483.836182 393.211853,479.032379 
	C391.847076,477.039490 389.752747,476.001495 387.955109,474.554321 
	C385.545380,472.614471 383.724854,470.283722 388.078979,468.172333 
	C389.227203,467.615570 390.205353,466.597534 391.096252,465.637848 
	C399.055298,457.064423 406.875000,456.873779 414.955963,465.088745 
	C415.534485,465.676880 416.195374,466.184021 417.132080,466.896912 
z"/>
<path fill="#000000" opacity="1.000000" stroke="none" 
	d="
M261.062775,435.526978 
	C260.759247,437.762878 260.496796,439.583008 260.087952,441.772125 
	C258.416016,445.738617 258.404236,449.575378 258.079803,453.377533 
	C257.904175,455.436035 258.042694,458.296936 254.861420,457.879669 
	C252.164078,457.525848 252.443878,454.868927 252.791031,453.018311 
	C254.779526,442.417694 256.797516,431.817932 259.095032,421.281006 
	C263.089874,402.959717 267.288635,384.682800 271.430511,366.393799 
	C271.684235,365.273499 271.901306,363.931824 272.633820,363.176331 
	C274.274414,361.484161 275.915558,358.480713 278.625366,359.923035 
	C281.292236,361.342499 278.978821,363.756073 278.303284,365.610962 
	C272.548981,381.410675 268.791504,397.736389 265.317139,414.145416 
	C263.840271,421.120422 261.699188,427.959320 261.062775,435.526978 
z"/>
<path fill="#000000" opacity="1.000000" stroke="none" 
	d="
M545.016602,387.979034 
	C549.577393,387.134552 550.612610,389.658173 550.316345,393.471405 
	C549.104370,409.070068 547.898132,424.669189 546.686951,440.267914 
	C546.235962,446.074707 545.809143,451.883636 545.304565,457.685791 
	C545.133728,459.649048 545.075623,462.312012 542.334534,461.946503 
	C539.328491,461.545624 539.912537,458.954742 540.414612,456.770020 
	C543.979004,441.260620 542.591614,425.338623 544.954041,409.902100 
	C538.459839,407.553558 537.915649,406.075897 538.303528,399.676819 
	C538.607788,394.656464 539.472412,390.463257 544.864014,388.317261 
	C544.950256,388.040344 544.995117,388.000153 545.016602,387.979034 
z"/>
<path fill="#000000" opacity="1.000000" stroke="none" 
	d="
M328.362457,837.445068 
	C312.897522,837.405518 297.871643,837.405518 282.845764,837.405518 
	C282.802826,836.625793 282.759888,835.846069 282.716980,835.066345 
	C286.320648,834.652039 289.927582,833.862488 293.527374,833.893738 
	C304.427917,833.988281 315.324585,834.478760 326.225342,834.634644 
	C328.934906,834.673340 331.543732,835.054688 334.076630,835.800049 
	C340.964233,837.827026 347.872040,839.428040 355.144958,838.822693 
	C357.320984,838.641541 359.628784,839.127075 361.260345,840.578369 
	C366.500397,845.239380 372.673706,846.331787 379.362061,845.894897 
	C379.945099,845.856812 380.549591,846.147583 381.473114,846.362061 
	C380.240845,849.194946 377.841827,848.957092 375.917847,848.894409 
	C370.768890,848.726624 365.621094,848.433655 361.518311,844.494629 
	C359.539246,842.594543 356.848450,841.742859 354.136414,841.968079 
	C345.272705,842.704102 337.172821,839.376709 328.362457,837.445068 
z"/>
<path fill="#000000" opacity="1.000000" stroke="none" 
	d="
M508.711334,559.353821 
	C507.045105,554.699036 505.180084,550.686157 500.958130,548.256714 
	C500.022156,547.718201 499.253815,546.641052 498.749908,545.639893 
	C495.866821,539.911987 492.753815,538.472961 486.278351,539.832764 
	C482.792816,540.564575 479.249176,541.276489 475.887207,538.943359 
	C483.823212,537.542297 491.731293,535.243713 499.735443,538.801392 
	C500.027496,538.931213 500.462036,539.168945 500.491272,539.399353 
	C501.467316,547.097229 509.492889,550.420776 511.531616,557.770325 
	C513.456055,564.707886 514.606934,571.725342 515.189148,578.744446 
	C515.792969,586.024902 519.117615,592.891174 518.092529,600.362488 
	C517.760986,602.778992 518.280090,605.512939 514.318665,606.221924 
	C514.130615,590.430054 512.071472,575.001221 508.711334,559.353821 
z"/>
<path fill="#000000" opacity="1.000000" stroke="none" 
	d="
M486.129517,506.663757 
	C485.276154,502.896423 484.545502,499.522522 483.811066,496.131104 
	C484.735291,494.937073 485.932953,494.662140 487.362335,495.062836 
	C487.580994,495.289642 487.948151,495.490051 488.008698,495.759399 
	C490.192749,505.476776 492.269348,515.184143 496.617340,524.296448 
	C499.237396,529.787292 498.181000,533.406738 493.407593,536.685791 
	C494.572540,525.533264 487.551361,517.103149 486.129517,506.663757 
z"/>
<path fill="#000000" opacity="1.000000" stroke="none" 
	d="
M469.147156,663.075562 
	C467.373199,667.568481 464.666351,671.325989 464.498596,676.150818 
	C465.698364,677.427307 467.069824,674.440063 468.530548,676.576233 
	C466.223907,681.677917 463.796570,687.046692 461.202484,692.784241 
	C456.753937,686.052307 462.958679,662.730835 469.240814,659.297424 
	C470.853485,660.402893 469.637939,661.583801 469.147156,663.075562 
z"/>
<path fill="#000000" opacity="1.000000" stroke="none" 
	d="
M505.069702,747.539795 
	C496.926392,749.051025 495.825867,748.279297 497.709503,742.227356 
	C502.734314,747.463074 506.865906,743.450439 511.168213,741.058594 
	C515.967041,738.390686 517.191040,739.048157 517.919678,745.604065 
	C512.677612,740.956116 509.515350,746.234131 505.069702,747.539795 
z"/>
<path fill="#000000" opacity="1.000000" stroke="none" 
	d="
M445.480347,818.442871 
	C446.798645,821.530701 449.995026,822.236816 451.747528,824.595764 
	C449.657410,827.182251 447.764404,825.742493 446.091034,824.486450 
	C441.620544,821.130371 438.496704,812.937866 440.008514,807.710754 
	C443.378387,810.659424 442.806824,815.255432 445.480347,818.442871 
z"/>
<path fill="#000000" opacity="1.000000" stroke="none" 
	d="
M490.519409,835.642700 
	C493.750916,839.231262 497.711182,841.252808 501.775726,843.351746 
	C500.288971,846.135742 498.234833,845.529114 496.518768,844.857422 
	C492.925842,843.451050 490.160675,840.801025 487.505096,838.086487 
	C486.653137,837.215637 486.140839,836.054626 487.200378,835.032288 
	C488.255371,834.014404 489.320038,834.642151 490.519409,835.642700 
z"/>
<path fill="#000000" opacity="1.000000" stroke="none" 
	d="
M463.773438,815.599976 
	C465.835510,818.449341 465.995911,822.359131 470.531616,822.760498 
	C468.223145,826.477966 466.061401,826.350586 463.687195,824.214355 
	C461.437866,822.190491 460.815826,819.394226 460.641113,816.590027 
	C460.489716,814.160034 461.948486,814.348450 463.773438,815.599976 
z"/>
<path fill="#000000" opacity="1.000000" stroke="none" 
	d="
M464.235474,696.503174 
	C465.886047,694.749451 466.448608,692.407104 469.828583,691.292175 
	C468.408905,696.233215 466.283844,700.152039 465.900177,704.495483 
	C465.820709,705.395081 464.713684,705.574829 463.853821,705.360657 
	C462.779236,705.093018 462.204071,704.252869 461.984344,703.233704 
	C461.442352,700.719788 462.616486,698.714722 464.235474,696.503174 
z"/>
<path fill="#000000" opacity="1.000000" stroke="none" 
	d="
M262.455872,662.078003 
	C262.244537,663.739197 262.506653,665.193726 260.921234,665.834473 
	C258.587708,661.250671 259.608795,651.772766 263.380798,647.469727 
	C264.917450,652.696167 262.600647,657.158997 262.455872,662.078003 
z"/>
<path fill="#000000" opacity="1.000000" stroke="none" 
	d="
M373.172882,522.606689 
	C374.687836,522.114868 375.813934,521.095764 377.157471,522.156616 
	C374.783813,526.329834 364.322906,529.316711 358.074493,527.105591 
	C363.038239,524.221069 368.443848,524.947571 373.172882,522.606689 
z"/>
<path fill="#000000" opacity="1.000000" stroke="none" 
	d="
M437.759460,615.756226 
	C438.628998,611.740723 435.340729,607.731323 438.516937,603.984985 
	C441.619232,607.883301 442.003967,616.094910 439.572510,620.315125 
	C437.453094,619.595520 438.009735,617.709961 437.759460,615.756226 
z"/>
<path fill="#000000" opacity="1.000000" stroke="none" 
	d="
M485.595581,734.810547 
	C483.938507,735.567261 482.492188,736.480408 481.170532,735.170044 
	C479.825256,733.836243 480.690704,732.389160 481.446655,731.104553 
	C482.550690,729.228210 482.926880,726.727173 485.956787,725.997681 
	C483.699310,729.028381 489.876984,731.636475 485.595581,734.810547 
z"/>
<path fill="#000000" opacity="1.000000" stroke="none" 
	d="
M304.133972,562.716064 
	C300.715912,558.454041 302.575897,553.534302 309.388245,551.166443 
	C306.165833,555.172241 307.001038,559.467529 304.133972,562.716064 
z"/>
<path fill="#000000" opacity="1.000000" stroke="none" 
	d="
M500.298096,840.485718 
	C499.510803,838.269592 499.509430,836.553772 501.781342,835.203857 
	C503.679840,837.013611 505.964813,838.390686 509.103180,838.192810 
	C506.807251,841.074463 504.604675,843.730713 500.298096,840.485718 
z"/>
<path fill="#000000" opacity="1.000000" stroke="none" 
	d="
M469.201508,716.374512 
	C474.183044,717.252563 473.585327,722.341919 476.447937,724.621094 
	C476.093903,725.071838 475.946106,725.421753 475.684662,725.566956 
	C473.823090,726.600891 471.555054,725.727966 471.842957,724.180542 
	C472.492157,720.691284 465.018250,720.709534 469.201508,716.374512 
z"/>
<path fill="#000000" opacity="1.000000" stroke="none" 
	d="
M337.267090,527.030029 
	C334.808807,529.763245 332.950836,529.008667 331.482147,526.273438 
	C330.126251,523.748230 329.282288,521.348877 333.442017,520.060303 
	C334.724548,522.278381 336.002380,524.488220 337.267090,527.030029 
z"/>
<path fill="#000000" opacity="1.000000" stroke="none" 
	d="
M532.013184,835.987793 
	C528.935608,834.582275 525.841614,833.191467 522.366699,831.629395 
	C524.774414,829.307678 527.126892,828.356934 529.771423,829.377625 
	C532.386414,830.386780 532.453857,832.804810 532.051208,835.617432 
	C531.963501,836.031921 531.996704,836.002563 532.013184,835.987793 
z"/>
<path fill="#000000" opacity="1.000000" stroke="none" 
	d="
M451.816986,815.515747 
	C454.122040,817.717712 454.565125,821.425781 459.139618,820.872192 
	C456.717255,824.843933 454.466156,824.282410 452.231934,822.309326 
	C449.402985,819.811096 449.220642,817.360352 451.816986,815.515747 
z"/>
<path fill="#000000" opacity="1.000000" stroke="none" 
	d="
M480.388672,814.311157 
	C482.342163,813.408142 483.339905,810.965515 486.147369,812.233765 
	C484.231537,815.881348 481.336823,818.082581 477.508362,818.743469 
	C475.901031,819.020874 474.862000,817.659058 475.162140,815.684021 
	C476.562073,814.385193 478.779205,816.146423 480.388672,814.311157 
z"/>
<path fill="#000000" opacity="1.000000" stroke="none" 
	d="
M446.948975,567.756409 
	C448.557129,568.534302 449.153473,569.366028 447.529968,570.263916 
	C445.243469,571.528442 439.966095,569.375916 439.161591,566.854431 
	C438.991638,566.321777 439.040375,565.512085 439.344421,565.081421 
	C439.864227,564.344788 440.796661,564.327393 441.560120,564.740906 
	C443.270966,565.667297 444.932800,566.684204 446.948975,567.756409 
z"/>
<path fill="#000000" opacity="1.000000" stroke="none" 
	d="
M341.785461,524.702759 
	C344.120148,526.034485 346.120667,527.314880 348.626282,528.918518 
	C344.709229,531.483826 341.987152,530.567200 339.818207,527.997009 
	C338.317505,526.218628 339.299255,524.991028 341.785461,524.702759 
z"/>
<path fill="#000000" opacity="1.000000" stroke="none" 
	d="
M463.468872,552.602966 
	C462.147034,554.755859 460.690460,556.342712 458.797546,557.455200 
	C457.647675,558.131042 456.479614,557.996460 455.761749,556.805237 
	C455.003448,555.546814 455.654236,553.985718 456.785095,554.089966 
	C459.382874,554.329529 460.411835,549.172607 463.468872,552.602966 
z"/>
<path fill="#000000" opacity="1.000000" stroke="none" 
	d="
M309.358154,565.612671 
	C307.306305,562.314941 308.483643,559.820007 310.417053,557.252014 
	C313.272003,561.421692 312.874298,564.923828 309.358154,565.612671 
z"/>
<path fill="#000000" opacity="1.000000" stroke="none" 
	d="
M320.560516,563.849854 
	C320.568695,565.178955 320.076477,565.870422 319.081055,565.349854 
	C317.030365,564.277344 316.681824,562.276855 316.795471,560.218933 
	C316.902252,558.284302 317.460754,556.596130 320.230225,556.739624 
	C320.805267,558.982605 319.374512,561.341309 320.560516,563.849854 
z"/>
<path fill="#000000" opacity="1.000000" stroke="none" 
	d="
M512.390503,840.634155 
	C510.451233,836.009277 514.276733,837.321472 516.827148,835.733643 
	C516.881470,839.564880 517.217651,842.206360 512.390503,840.634155 
z"/>
<path fill="#000000" opacity="1.000000" stroke="none" 
	d="
M333.844574,578.027954 
	C331.981476,581.031555 331.069061,579.706848 330.908173,577.578308 
	C330.779572,575.876404 331.716003,574.410706 333.584229,573.750671 
	C335.471313,574.915649 334.091217,576.372925 333.844574,578.027954 
z"/>
<path fill="#000000" opacity="1.000000" stroke="none" 
	d="
M454.652008,558.985107 
	C453.954926,559.869873 453.376282,560.515564 452.653503,560.846741 
	C451.568390,561.343872 450.371277,561.489868 449.427856,560.482727 
	C448.781219,559.792480 448.823883,558.953979 449.328918,558.204895 
	C450.177795,556.945740 451.384735,556.487854 452.782593,557.131409 
	C453.498169,557.460876 454.069427,558.103943 454.652008,558.985107 
z"/>
<path fill="#000000" opacity="1.000000" stroke="none" 
	d="
M329.053223,560.879395 
	C328.216522,558.955261 327.962524,557.390503 329.801636,556.170288 
	C332.218414,556.910950 331.896332,558.820679 331.517578,560.565491 
	C331.235718,561.863831 330.273193,561.919189 329.053223,560.879395 
z"/>
<path fill="#000000" opacity="1.000000" stroke="none" 
	d="
M176.884399,349.815613 
	C174.089813,348.887268 174.117798,347.166962 174.413010,344.921143 
	C174.927673,341.005615 175.746674,337.024384 174.290573,333.095825 
	C173.017578,329.661316 176.107712,329.074707 177.920746,327.924591 
	C178.268204,324.418854 173.688095,323.173737 174.684616,319.737183 
	C175.599319,316.582916 178.460403,313.961945 180.502823,312.704224 
	C185.934662,309.359314 186.085602,318.517853 191.556046,317.887848 
	C191.071182,318.234894 191.357224,318.073975 191.590408,317.856384 
	C193.510162,316.065002 193.587601,311.862244 196.237869,311.896332 
	C199.853683,311.942780 203.646652,313.310516 206.996765,314.890015 
	C210.721390,316.646118 207.333710,319.466888 206.972809,322.330292 
	C211.556580,322.130493 211.576920,325.157837 211.286606,328.297363 
	C210.953979,331.894440 212.178925,335.619415 210.459488,339.092804 
	C209.924774,340.172943 210.829651,340.387665 211.261520,341.032715 
	C214.134750,345.324432 211.797409,350.759644 206.643738,351.298279 
	C200.814667,351.907532 194.662170,353.372711 190.065643,347.693970 
	C189.613892,347.135864 188.203247,347.353912 187.032150,347.181427 
	C185.558090,348.956573 186.555344,352.968292 182.385376,352.315643 
	C179.776749,351.907379 179.858383,349.975281 179.675003,347.581177 
	C178.923370,349.154663 178.467255,350.048157 176.884399,349.815613 
M199.150879,345.441772 
	C200.791107,345.430450 202.510193,345.729187 204.053452,345.336639 
	C206.491119,344.716705 207.629791,341.064575 205.814621,339.868195 
	C203.630798,338.428741 200.793732,338.517944 198.691208,339.629120 
	C196.369415,340.856232 196.914291,343.189117 199.150879,345.441772 
z"/>
<path fill="#000000" opacity="1.000000" stroke="none" 
	d="
M179.979797,265.214478 
	C179.065704,266.660522 178.145950,267.767151 176.704147,266.422607 
	C175.268494,265.083771 173.354324,263.616882 174.032928,261.408783 
	C176.986694,251.797531 175.697617,241.927887 176.017410,232.164474 
	C176.121017,229.001297 177.293701,227.542084 180.499863,227.760941 
	C181.989365,227.862625 183.499313,227.848572 184.988419,227.735107 
	C188.356689,227.478455 190.547150,228.422531 190.293823,232.347610 
	C190.209946,233.647186 190.149338,235.185364 192.579605,234.670761 
	C193.592163,232.439941 189.176941,228.733765 194.160049,227.466858 
	C199.274338,226.166595 198.064087,231.896667 200.780151,233.365723 
	C201.970871,232.388153 202.286423,230.893295 202.676743,229.488678 
	C203.225510,227.513901 204.238327,226.716461 206.332413,227.387482 
	C208.298920,228.017639 209.877823,228.886948 208.879852,231.237701 
	C208.041870,233.211563 208.019791,234.390305 210.211960,235.618195 
	C212.067245,236.657349 211.267746,238.851440 210.962601,240.574890 
	C208.852783,242.647400 205.535767,240.033630 203.574310,242.591019 
	C203.905655,245.525696 206.199722,244.562653 207.782013,244.684982 
	C210.028610,244.858643 212.193100,244.762100 212.198593,247.988831 
	C212.203964,251.158295 210.172928,251.314285 207.842377,251.328537 
	C206.899216,251.334305 205.804382,251.062881 204.931732,252.380539 
	C205.301987,255.015991 207.137573,257.099304 209.314270,258.432892 
	C213.957001,261.277283 211.983780,263.883392 209.737717,266.921112 
	C205.008026,265.682251 203.483337,261.409637 200.699203,258.425995 
	C197.452530,261.110779 196.701233,267.109100 191.531540,266.472229 
	C187.752960,266.006775 183.325836,269.615387 179.979797,265.214478 
M193.165207,251.392151 
	C187.975800,252.619766 190.935638,255.997299 191.083130,258.661865 
	C192.466888,256.390625 197.672089,255.541748 193.165207,251.392151 
M196.084015,243.992355 
	C196.854111,242.651611 196.360046,241.690994 194.966461,241.542969 
	C193.267700,241.362549 191.341934,241.154129 190.668655,243.543274 
	C192.073944,245.336807 193.860138,244.617371 196.084015,243.992355 
M181.985031,259.957306 
	C184.431015,257.988220 184.435455,257.942596 182.323898,254.867828 
	C181.268967,256.361908 181.202682,257.882812 181.985031,259.957306 
z"/>
<path fill="#000000" opacity="1.000000" stroke="none" 
	d="
M162.318573,298.067444 
	C161.276169,301.834137 159.107803,304.307404 156.181351,306.096558 
	C150.803635,309.384369 147.820618,308.981873 143.615692,304.399994 
	C142.056427,305.104156 140.456696,305.949432 138.772934,306.564819 
	C132.810684,308.743896 127.992279,305.489441 127.713379,299.158264 
	C127.480202,293.865448 129.968948,289.928192 133.893082,286.686432 
	C135.126724,285.667297 137.043137,284.956268 136.506760,282.863007 
	C135.997101,280.873962 134.124374,281.382446 132.726883,281.323151 
	C130.228165,281.217102 129.092407,279.951385 129.110596,277.546265 
	C129.129822,275.002380 130.848038,274.634216 132.865814,274.709595 
	C135.314072,274.801025 137.245987,274.694946 138.003510,271.460175 
	C138.555679,269.102356 143.384872,268.978210 143.875061,271.266541 
	C144.765991,275.425659 147.188873,274.493774 149.852676,274.060760 
	C152.611526,273.612244 155.398849,273.338867 158.233597,272.981323 
	C160.108170,276.929688 159.732559,279.678711 154.623184,280.661530 
	C157.461838,286.564423 164.940506,290.012573 162.318573,298.067444 
M154.199875,291.928894 
	C150.472763,293.552277 149.799927,297.211090 147.673767,300.563110 
	C154.134918,299.779388 156.083252,297.204681 154.199875,291.928894 
M137.055939,294.311615 
	C134.081757,294.259491 134.665466,296.579010 134.563721,298.267731 
	C134.512024,299.126099 135.433304,299.845551 136.266617,299.513794 
	C138.440750,298.648346 137.341919,296.810394 137.281540,295.299225 
	C137.275116,295.138123 137.231400,294.978516 137.055939,294.311615 
z"/>
<path fill="#000000" opacity="1.000000" stroke="none" 
	d="
M177.611908,384.604614 
	C180.125870,381.606506 181.806808,379.000244 178.330048,375.768951 
	C176.578506,374.141083 173.547913,372.403137 176.443512,369.239044 
	C179.499420,365.899811 180.891327,370.141266 183.310928,370.828491 
	C185.134323,368.008270 185.030853,366.303894 181.084839,366.349915 
	C179.753662,366.365448 178.421494,366.350922 177.090561,366.318329 
	C175.071472,366.268890 174.067825,365.193359 173.991104,363.195557 
	C173.914536,361.200989 174.789337,359.916077 176.840729,359.908905 
	C179.387695,359.899994 180.911652,359.009369 181.188980,356.268463 
	C181.374786,354.432007 182.799896,353.927002 184.470291,353.939636 
	C186.151108,353.952332 187.146545,354.660767 187.831223,356.306366 
	C189.217987,359.639404 196.424133,362.733398 199.728775,361.757202 
	C201.643295,361.191681 201.804688,359.767731 201.779846,358.251709 
	C201.741959,355.939117 202.371414,354.366272 205.056732,354.301117 
	C207.779953,354.235046 208.481537,355.765991 208.366913,358.113556 
	C208.280777,359.877747 208.942078,360.976685 210.503998,362.174408 
	C213.051895,364.128235 213.686661,366.915985 210.179932,368.702057 
	C208.138031,369.742065 208.388718,371.284515 208.370880,372.879120 
	C208.313126,378.039612 208.297180,383.201080 208.321472,388.361877 
	C208.345200,393.405060 205.166031,394.198273 201.023346,394.354614 
	C196.727921,394.516754 195.301529,392.553528 195.776688,388.346832 
	C198.433777,387.341400 203.563309,388.313599 201.306946,382.491058 
	C199.748657,381.330719 197.667099,384.405609 196.402954,382.134613 
	C194.720123,379.111542 193.189133,375.968842 191.993103,372.729797 
	C191.598541,371.661316 193.240936,370.967133 194.298569,370.464508 
	C195.503815,369.891754 196.552856,370.008209 197.355637,371.169128 
	C198.561264,372.912598 199.762054,374.659393 201.738983,377.528015 
	C201.340820,373.671478 203.290588,370.460663 200.135178,368.847748 
	C197.821548,367.665131 194.570465,369.169800 192.006378,366.459442 
	C190.383026,372.658234 187.019867,377.997314 192.434433,383.626892 
	C195.289688,386.595581 192.405792,388.596252 190.220963,390.322205 
	C187.422226,390.086273 187.687134,386.749969 185.402847,386.082550 
	C182.477737,388.156647 181.534927,392.275421 177.987137,393.734314 
	C173.124176,389.635193 173.115051,389.469940 177.611908,384.604614 
z"/>
<path fill="#000000" opacity="1.000000" stroke="none" 
	d="
M209.081787,277.960205 
	C211.983627,280.871826 211.988556,283.413818 208.128967,284.888641 
	C206.178619,285.633942 204.314651,285.949219 204.336456,288.647247 
	C204.359802,291.534821 204.182251,294.342377 207.451065,295.851990 
	C211.996185,297.951050 212.685211,301.002350 209.248047,305.144653 
	C206.682114,303.709778 204.702881,303.895966 202.224045,306.319244 
	C197.433304,311.002625 189.562103,308.637573 185.584381,301.737152 
	C185.156128,303.263092 184.619934,304.623260 184.414612,306.031677 
	C184.090729,308.253571 182.492035,308.508698 180.788284,308.667450 
	C178.763306,308.856171 177.582062,307.784790 177.348206,305.878021 
	C176.964172,302.746613 176.714523,299.596466 176.487091,296.448547 
	C175.956390,289.103210 176.777481,281.846527 178.011383,274.620850 
	C178.487274,271.833984 179.901642,270.572662 182.884216,271.210724 
	C186.186371,271.917206 185.348495,274.176819 184.997635,276.274261 
	C184.476562,279.389221 183.997559,282.517151 183.308395,285.596527 
	C182.421539,289.559326 184.198669,292.079285 187.691330,293.225281 
	C191.017166,294.316498 194.318222,292.652985 196.865021,290.992889 
	C198.586929,289.870514 198.369858,286.881927 195.190628,286.315552 
	C193.236176,285.967377 191.204224,286.078369 189.227737,285.823151 
	C187.130615,285.552338 186.653793,284.056580 186.752502,282.174927 
	C186.853607,280.247986 187.589844,278.971771 189.704575,278.934753 
	C190.869873,278.914368 192.036469,278.926392 193.201736,278.954865 
	C195.938126,279.021729 197.758957,278.085602 197.658890,274.977478 
	C197.586594,272.731567 198.093872,270.991760 200.883804,271.041138 
	C203.462128,271.086823 204.492737,272.472351 204.275299,274.879852 
	C203.940704,278.584564 206.121094,278.510345 209.081787,277.960205 
z"/>
<path fill="#000000" opacity="1.000000" stroke="none" 
	d="
M132.740936,339.943665 
	C129.339859,340.639526 129.080856,337.850037 128.314835,336.098419 
	C127.416275,334.043732 129.558975,333.291626 130.845825,332.388672 
	C135.179565,329.347778 138.992416,325.764069 142.782913,321.764404 
	C140.327652,320.660187 138.165482,321.343811 136.075241,321.303436 
	C133.476242,321.253235 132.580185,320.045349 132.569702,317.594147 
	C132.558701,315.025574 134.059586,314.663727 136.127029,314.587311 
	C140.451187,314.427368 144.775116,314.193176 149.089539,313.863708 
	C151.717896,313.663025 154.052856,313.706116 155.376129,316.580109 
	C156.695389,319.445435 154.197052,320.422302 152.858337,321.883179 
	C151.201126,323.691681 149.302963,325.279388 147.033249,327.408691 
	C152.179703,327.796814 156.831955,328.280121 159.887054,332.396912 
	C161.844604,335.034729 161.665375,338.112701 161.202789,341.059906 
	C160.149857,347.768311 151.547348,352.386292 142.844940,351.100586 
	C136.124329,350.107666 133.812012,346.670898 134.756439,338.723267 
	C134.060379,339.148560 133.524475,339.475983 132.740936,339.943665 
M150.615906,334.435242 
	C146.826981,334.047577 143.068863,333.889954 139.467590,336.097443 
	C145.387344,334.498016 148.565567,338.695374 152.098297,342.129822 
	C155.883698,338.922363 154.805313,336.645935 150.615906,334.435242 
z"/>
<path fill="#000000" opacity="1.000000" stroke="none" 
	d="
M137.714111,368.905334 
	C139.660934,367.325134 141.616058,366.281097 142.891159,363.902679 
	C140.695251,362.670135 138.370377,363.464264 136.221771,363.330475 
	C133.907501,363.186371 132.985306,362.079224 132.881836,359.888794 
	C132.764679,357.408630 134.152756,356.733307 136.298645,356.723541 
	C141.460587,356.700073 146.609238,356.629181 151.747818,355.885712 
	C155.504593,355.342163 156.202606,358.600220 157.504211,361.365906 
	C160.138931,359.895081 162.369736,359.948395 163.956680,363.084625 
	C165.515121,366.164581 163.192871,366.789154 161.334030,367.787781 
	C164.916443,373.230988 163.882217,375.684143 157.759430,376.126892 
	C155.052567,376.322571 152.458908,376.823883 150.108505,378.152039 
	C148.058929,379.310181 145.783157,380.704102 146.431488,383.475739 
	C147.083344,386.262360 149.783707,385.800537 151.861099,385.818329 
	C154.871719,385.844177 157.710327,385.698334 157.335953,390.089691 
	C157.168442,392.054474 156.505096,393.007324 154.427994,393.334808 
	C142.916351,395.149902 137.180908,389.252533 139.681824,377.894623 
	C136.696671,376.454437 133.856445,378.325378 130.945328,378.354553 
	C128.907913,378.374969 127.269020,378.309082 127.003067,375.774536 
	C126.763077,373.487305 127.247414,371.946808 129.935898,371.543488 
	C132.529099,371.154480 135.299057,371.065765 137.714111,368.905334 
M153.740677,368.780945 
	C154.776199,367.624115 154.442963,366.228821 153.252289,365.989471 
	C150.861221,365.508820 149.560684,367.339355 148.141022,369.143860 
	C150.079849,369.943970 151.644714,369.665466 153.740677,368.780945 
z"/>
<path fill="#000000" opacity="1.000000" stroke="none" 
	d="
M155.874878,230.790375 
	C160.698578,230.089188 162.592316,231.997223 162.221313,236.320496 
	C162.090652,237.843155 162.343948,239.290833 163.066528,240.663223 
	C164.381744,243.161240 163.450851,244.362579 160.951874,245.569473 
	C155.034515,248.427277 153.821396,247.901276 152.569519,240.887802 
	C150.774643,241.519012 149.558853,242.874802 148.409653,244.225235 
	C143.343811,250.178268 144.895157,255.072296 152.554062,256.907623 
	C155.599457,257.637390 158.039719,258.376190 157.157059,262.319641 
	C156.243530,266.400970 153.416351,265.262085 150.866150,264.685944 
	C137.703033,261.712189 134.016968,250.968719 142.482620,240.333878 
	C142.856598,239.864075 143.260788,239.418350 144.497314,237.969971 
	C139.448547,239.449173 135.423248,238.932556 131.520035,239.575394 
	C128.528076,240.068115 127.743347,238.822830 127.443810,236.181854 
	C127.118874,233.316925 128.342987,232.165207 130.986145,232.032120 
	C139.124695,231.622314 147.263321,231.214050 155.874878,230.790375 
z"/>
</svg>