<?xml version="1.0" standalone="yes"?>
<svg xmlns="http://www.w3.org/2000/svg" width="3840" height="2160">
<path style="fill:#47714e; stroke:none;" d="M0 0L0 2160L3840 2160L3840 0L0 0z"/>
<path style="fill:#0a0b0b; stroke:none;" d="M1468 1899C1425.65 1888.04 1387.4 1907.84 1349 1923.2C1332.05 1929.98 1313.34 1934.38 1299 1946.33C1271.09 1969.58 1271.2 2011.9 1298 2035.83C1329.69 2064.13 1380.78 2076.32 1421 2086.37C1470.63 2098.78 1522.11 2106.99 1573 2111.83C1602.91 2114.68 1633.05 2114.04 1663 2116.09C1679.98 2117.25 1697.08 2118.2 1714 2120.28C1723.17 2121.41 1732.95 2124.64 1742.01 2124.98C1838.37 2128.58 1935.57 2125 2032 2125L2164 2125C2185.74 2125 2208.31 2126.77 2229.96 2124.94C2239.27 2124.16 2247.93 2117.78 2258 2117.09C2269.3 2116.32 2280.68 2119.45 2292 2118.96C2365.08 2115.79 2438.88 2110.9 2511 2097.39C2555.68 2089.02 2604.09 2078.65 2645 2058.25C2665.98 2047.79 2685.99 2033.14 2694.03 2010C2703.18 1983.67 2686.38 1961.72 2668 1945.17C2629.39 1910.42 2572.65 1902.28 2523 1896C2534.8 1871.06 2548.68 1848.7 2556.97 1822C2570.24 1779.3 2574.48 1735.11 2580.28 1691C2586.04 1647.19 2593.65 1603.66 2600.42 1560C2622.87 1415.26 2651.74 1272 2650 1125C2649.55 1087.48 2644.49 1048.79 2637 1012C2631.19 983.54 2622.08 954.371 2624.09 925C2627.31 877.97 2665.07 843.258 2680.95 800C2688.1 780.508 2695.75 758.774 2697.83 738C2699.92 717.084 2698 695.026 2698 674C2698 653.938 2699.76 632.965 2697.83 613C2694.89 582.641 2685.33 551.026 2673.58 523C2658.15 486.204 2635.89 451.602 2607.99 423C2589.84 404.395 2565.64 390.187 2550.43 369C2534 346.119 2525.64 316.999 2512.74 292C2494.68 257.003 2470.7 224.757 2443.91 196C2310.71 53.0107 2103.39 26.2871 1919 38.9106C1870.85 42.2073 1821.78 37.4189 1774 45.4353C1730.36 52.7561 1689.25 71.9373 1654 98.375C1559.26 169.427 1506.34 289.123 1478.37 401C1470.47 432.606 1465.91 464.799 1461.27 497C1458.67 515.069 1457.19 537.619 1446.43 552.996C1427.97 579.363 1383.91 566.296 1357 572.654C1291.27 588.182 1223.15 601.456 1184.81 664C1177.17 676.461 1170.81 690.076 1166.34 704C1142.75 777.553 1155.29 859.02 1151.96 935C1149.71 986.384 1144.29 1037.64 1142.04 1089C1139.93 1137.13 1142 1185.82 1142 1234C1142 1270.34 1138.29 1308.89 1142.17 1345C1143.29 1355.4 1147.38 1365.53 1148.71 1376C1156.18 1434.47 1159.63 1493.27 1189.42 1546C1219.48 1599.2 1268.29 1643.06 1330 1653.92C1347.05 1656.91 1364.69 1658.1 1382 1656.91C1401.27 1655.59 1419.86 1651.64 1435.96 1665.46C1455.61 1682.33 1452.51 1710.9 1454.09 1734C1457.86 1789 1466.86 1843.86 1468 1899z"/>
<path style="fill:#b50a1d; stroke:none;" d="M2361 1555C2339.62 1576.38 2319.28 1598.77 2293 1614.4C2280.17 1622.02 2265.46 1624.24 2252 1630.31C2221.05 1644.26 2203.27 1669.03 2196.8 1702C2194.34 1714.57 2193.62 1727.26 2192.92 1740C2191.15 1772.42 2187.63 1812.47 2208.48 1839.99C2242.49 1884.87 2316.13 1866.36 2362.99 1862.06C2383.72 1860.17 2409.86 1859.31 2426.39 1844.96C2442.63 1830.85 2443.59 1803.9 2444.01 1784C2444.96 1739.76 2436.57 1692.47 2446.88 1649C2457.92 1602.51 2472.15 1556.93 2481.55 1510C2508.78 1374.13 2525.76 1233.74 2517.13 1095C2514.52 1052.87 2512.09 1010.93 2506.58 969C2504.79 955.364 2511.26 938.685 2500.79 927.044C2495.16 920.788 2487.02 920.563 2479.17 921.155C2461.65 922.476 2443.6 931.939 2427 937.33C2360.37 958.966 2287.39 972.595 2218 981.718C2123.38 994.16 2031.76 984.259 1947 938.309C1914.4 920.636 1884.45 898.835 1861.9 869C1797.68 784.051 1785.54 666.842 1790.04 564C1791.82 523.418 1791.56 476.674 1811.31 440C1848.91 370.182 1925.04 356.612 1996.09 344.146C2042.12 336.069 2087.2 328.524 2133.96 326.947C2188.05 325.123 2241.92 328 2296 328C2310.6 328 2343.79 332.436 2342.72 309C2342.19 297.319 2327.38 289.344 2320 281.999C2295.97 258.089 2270.88 235.564 2242 217.576C2189.81 185.068 2130.17 164.801 2068.71 160.155C2029.25 157.171 1989.54 160.422 1950 158.964C1907.67 157.402 1866.33 147.776 1824 155.424C1768.4 165.47 1719.5 200.221 1682.71 242C1673.41 252.564 1662.26 262.86 1654.98 275C1645.88 290.16 1640.3 308.798 1633.14 325C1609.65 378.137 1593.2 431.005 1581.8 488C1564.45 574.73 1551.7 662.233 1546.19 750.514C1540.23 846.086 1541 942.226 1541 1038C1541 1190.46 1542.38 1342.9 1550.92 1495.01C1556.71 1598.12 1563.1 1701.38 1575.72 1804C1578.66 1827.94 1580.28 1852.22 1584.39 1876C1586.39 1887.6 1588.14 1899.5 1598.01 1907.32C1605.74 1913.43 1615.95 1916.58 1625 1920.2C1645.88 1928.55 1667.8 1935.89 1690 1939.75C1716.7 1944.39 1743.27 1944.63 1770 1940.08C1785.32 1937.47 1799.99 1932.46 1814 1925.83C1824.21 1921 1833.38 1914.68 1842 1907.41C1895.68 1862.12 1885.34 1791.33 1886 1729C1886.24 1707.35 1888.01 1685.57 1889.77 1664C1892.48 1630.95 1887.38 1578.18 1919 1557.7C1952.8 1535.81 1995.33 1545.12 2032.01 1551.74C2049.93 1554.98 2067.96 1557.31 2086 1559.72C2146.73 1567.82 2209.8 1568.34 2270.83 1563.84C2300.81 1561.64 2331 1556.13 2361 1555z"/>
<path style="fill:#47714e; stroke:none;" d="M2221 421L2222 422L2221 421M2223 421L2223 422L2250 422L2223 421M2200 422L2200 423L2206 423L2200 422z"/>
<path style="fill:#81c9df; stroke:none;" d="M1952 468C1955.57 494.486 1968.09 521.278 1975.42 547C1983.24 574.409 1993.73 601.232 2009.67 625C2055.79 693.752 2131.35 706 2208 706C2262.5 706 2316.77 702.187 2371.01 697.156C2399.04 694.557 2426.95 691.218 2454.91 688.005C2503.03 682.475 2559.11 675.746 2586.93 630C2595.55 615.833 2582.82 589.37 2576.24 576C2552.74 528.203 2510.8 496.153 2464 472.753C2386.86 434.184 2296.89 418.532 2211.09 422.084C2153.06 424.486 2095.61 436.073 2039 448.576C2010.12 454.955 1980.47 459.997 1952 468z"/>
<path style="fill:#47714e; stroke:none;" d="M2208 422L2209 423L2208 422M2264 422L2264 423L2270 423L2264 422M2187 423L2187 424L2191 424L2187 423M2278 423L2278 424L2281 424L2278 423M2176 424L2176 425L2179 425L2176 424M2288 424L2288 425L2291 425L2288 424M2167.67 425.333L2168.33 425.667L2167.67 425.333M2297 425L2297 426L2300 426L2297 425M2158 426L2158 427L2161 427L2158 426M2305 426L2305 427L2308 427L2305 426M2150 427L2150 428L2153 428L2150 427M2313.67 427.333L2314.33 427.667L2313.67 427.333M2143.67 428.333L2144.33 428.667L2143.67 428.333M2319.67 428.333L2320.33 428.667L2319.67 428.333M2137.67 429.333L2138.33 429.667L2137.67 429.333M2326.67 429.333L2327.33 429.667L2326.67 429.333M2130.67 430.333L2131.33 430.667L2130.67 430.333M2332 430L2333 431L2332 430M2124.67 431.333L2125.33 431.667L2124.67 431.333M2337.67 431.333L2338.33 431.667L2337.67 431.333M2118.67 432.333L2119.33 432.667L2118.67 432.333M2342.67 432.333L2343.33 432.667L2342.67 432.333M2112.67 433.333L2113.33 433.667L2112.67 433.333M2347.67 433.333L2348.33 433.667L2347.67 433.333M2107 434L2108 435L2107 434M2352.67 434.333L2353.33 434.667L2352.67 434.333M2101.67 435.333L2102.33 435.667L2101.67 435.333M2357 435L2358 436L2357 435M2096.67 436.333L2097.33 436.667L2096.67 436.333M2361.67 436.333L2362.33 436.667L2361.67 436.333M2090.67 437.333L2091.33 437.667L2090.67 437.333M2365.67 437.333L2366.33 437.667L2365.67 437.333M2085.67 438.333L2086.33 438.667L2085.67 438.333M2370 438L2371 439L2370 438M2080.67 439.333L2081.33 439.667L2080.67 439.333M2374 439L2375 440L2374 439M2075.67 440.333L2076.33 440.667L2075.67 440.333M2377.67 440.333L2378.33 440.667L2377.67 440.333M2070.67 441.333L2071.33 441.667L2070.67 441.333M2381 441L2382 442L2381 441M2066 442L2067 443L2066 442M2385 442L2386 443L2385 442M2061.67 443.333L2062.33 443.667L2061.67 443.333M2388 443L2389 444L2388 443M2056.67 444.333L2057.33 444.667L2056.67 444.333M2052 445L2053 446L2052 445M2395 445L2396 446L2395 445M2047.67 446.333L2048.33 446.667L2047.67 446.333M2398 446L2399 447L2398 446M2042.67 447.333L2043.33 447.667L2042.67 447.333M2401 447L2402 448L2401 447M2038.67 448.333L2039.33 448.667L2038.67 448.333M2404 448L2405 449L2404 448M2033.67 449.333L2034.33 449.667L2033.67 449.333M2407 449L2408 450L2407 449M2029.67 450.333L2030.33 450.667L2029.67 450.333M2410 450L2411 451L2410 450M2024.67 451.333L2025.33 451.667L2024.67 451.333M2413 451L2414 452L2413 451M2020.67 452.333L2021.33 452.667L2020.67 452.333M2416 452L2417 453L2416 452M2015.67 453.333L2016.33 453.667L2015.67 453.333M2419 453L2420 454L2419 453M2011.67 454.333L2012.33 454.667L2011.67 454.333M2006.67 455.333L2007.33 455.667L2006.67 455.333M2424 455L2425 456L2424 455M2002.67 456.333L2003.33 456.667L2002.67 456.333z"/>
<path style="fill:#f7fbfd; stroke:none;" d="M2240 456.634C2217.21 458.042 2189.1 456.816 2170 471.529C2144.66 491.055 2137.52 548.688 2170 565.737C2180.8 571.407 2192.47 571.67 2204.3 572.952C2221.18 574.782 2238.1 576.449 2255.01 578.148C2309.18 583.592 2362.5 592.108 2417 591.014C2430.26 590.748 2443.93 593.056 2457.04 591.056C2463.2 590.116 2469.23 588.708 2474.58 585.359C2514.13 560.576 2484.97 514.771 2455 497.015C2436.51 486.062 2412.65 482.789 2392 477.627C2343.16 465.417 2290.66 453.505 2240 456.634z"/>
<path style="fill:#47714e; stroke:none;" d="M1997.67 457.333L1998.33 457.667L1997.67 457.333M2429 457L2430 458L2429 457M1993.67 458.333L1994.33 458.667L1993.67 458.333M1989 459L1990 460L1989 459M2434 459L2435 460L2434 459M1984.67 460.333L1985.33 460.667L1984.67 460.333M1979.67 461.333L1980.33 461.667L1979.67 461.333M2439 461L2440 462L2439 461M1975.67 462.333L1976.33 462.667L1975.67 462.333M2441 462L2442 463L2441 462M1970.67 463.333L1971.33 463.667L1970.67 463.333M2444 463L2445 464L2444 463M1966 464L1967 465L1966 464M2446 464L2447 465L2446 464M1961.67 465.333L1962.33 465.667L1961.67 465.333M2448 465L2449 466L2448 465M1957 466L1958 467L1957 466M1952.67 467.333L1953.33 467.667L1952.67 467.333M1951 468C1901.99 513.175 1888.23 587.035 1891.92 651.015C1893.45 677.594 1898.97 704.19 1911.26 728C1929.44 763.217 1965.19 793.839 1997 816.573C2122.07 905.955 2298.45 880.926 2433 828.811C2485.97 808.294 2543.85 785.999 2574.55 735C2590.35 708.753 2596.29 679.365 2594.96 649C2594.55 639.55 2591.2 630.418 2591 621L2590 621C2585.94 644.484 2554.14 663.77 2534 671.985C2509.05 682.161 2482.42 684.259 2456 687.671C2416.86 692.724 2377.42 697.167 2338.04 700.017C2321.31 701.228 2304.55 702.135 2287.83 703.401C2282.38 703.814 2273.29 702.394 2269 706L2268 706C2262.83 703.011 2245.04 703.507 2240 707L2239 707C2234.34 704.08 2226.43 706 2221 706C2206.34 706 2191.66 706.153 2177 705.996C2141.79 705.62 2104.12 698.526 2073 681.691C2023.24 654.778 1993.69 607.029 1977.72 554L1960.72 498C1957.88 488.564 1956.13 476.394 1951 468M2457 469L2458 470L2457 469M2459 470L2460 471L2459 470M2461 471L2462 472L2461 471M2463 472L2464 473L2463 472M2465 473L2466 474L2465 473M2467 474L2468 475L2467 474M2469 475L2470 476L2469 475M2476 479L2477 480L2476 479M2478 480L2479 481L2478 480M2480 481L2481 482L2480 481M2485 484L2486 485L2485 484M2487 485L2488 486L2487 485M2490 487L2491 488L2490 487M2492 488L2493 489L2492 488M2495 490L2496 491L2495 490M2500 493L2501 494L2500 493M2503 495L2504 496L2503 495M2507 498L2508 499L2507 498M2510 500L2511 501L2510 500M2514 503L2515 504L2514 503M2518 506L2519 507L2518 506M2523 510L2524 511L2523 510M2524 511L2525 512L2524 511M2529 515L2530 516L2529 515M2530 516L2531 517L2530 516M2531 517L2532 518L2531 517M2549 535L2550 536L2549 535M2550 536L2551 537L2550 536M2554 541L2555 542L2554 541M2555 542L2556 543L2555 542M2558 546L2559 547L2558 546M2561 550L2562 551L2561 550M2563 553L2564 554L2563 553M2565 556L2566 557L2565 556M2568 561L2569 562L2568 561M2571 566L2572 567L2571 566M2572 568L2573 569L2572 568M2573 570L2574 571L2573 570M2574 572L2575 573L2574 572M2575 574L2576 575L2575 574M2576 576L2577 577L2576 576M2577 578L2578 579L2577 578M2579 583L2580 584L2579 583M2580 585L2581 586L2580 585M2581 588L2582 589L2581 588M2583 593L2584 594L2583 593M2584 596L2585 597L2584 596M2585 600L2586 601L2585 600M2586 603L2587 604L2586 603M2587 607L2588 608L2587 607z"/>
<path style="fill:#0a0b0b; stroke:none;" d="M2000 610L2001 611L2000 610z"/>
<path style="fill:#47714e; stroke:none;" d="M2588.33 611.667L2588.67 612.333L2588.33 611.667M2589 616L2590 617L2589 616z"/>
<path style="fill:#0a0b0b; stroke:none;" d="M2587 629L2588 630L2587 629M2018 637L2019 638L2018 637M2579 640L2580 641L2579 640M2023 643L2024 644L2023 643M2565 654L2566 655L2565 654M2041 661L2042 662L2041 661M2046 665L2047 666L2046 665M2520 677L2521 678L2520 677z"/>
<path style="fill:#b50a1d; stroke:none;" d="M1375 688.425C1327.02 694.956 1296.73 727.319 1286.42 774C1282.4 792.204 1284.24 816.031 1277.07 833C1268.73 852.728 1269.52 871.559 1267.85 892.985C1265.24 926.626 1263.47 960.344 1260.85 993.985C1250.68 1124.66 1244.13 1257.57 1261.28 1388C1267.6 1436.06 1278.15 1483.24 1320 1513.09C1330.78 1520.78 1342.74 1526.85 1355 1531.8C1370.39 1538.01 1387.22 1542.98 1404 1540.57C1430.35 1536.79 1442.74 1513.58 1445.02 1489C1449.47 1441.06 1437 1392.18 1437 1344C1437 1222.97 1436 1102.02 1436 981C1436 934.474 1433.58 887.447 1435.25 841C1436.37 810.25 1438.29 779.609 1442.28 749C1443.92 736.389 1449.46 716.715 1442.63 705.015C1438.55 698.024 1430.37 695.527 1423 693.63C1407.67 689.682 1390.89 686.262 1375 688.425z"/>
<path style="fill:#0a0b0b; stroke:none;" d="M2093 691L2094 692L2093 691M2107 696L2108 697L2107 696M2268 705L2269 706L2268 705M2239 706L2240 707L2239 706z"/>
<path style="fill:#47714e; stroke:none;" d="M2014 1851L2057 1846.01L2099 1850C2095.17 1833.82 2088.39 1818.32 2084.65 1802C2078.81 1776.51 2076.87 1750.95 2075.09 1725C2074 1709.06 2077.08 1687.8 2060 1678.82C2047.65 1672.34 2027.19 1673.76 2022.44 1689C2019.62 1698.05 2021 1708.63 2021 1718C2021 1732.01 2020 1745.95 2020 1760C2020 1778.33 2020.57 1796.76 2018.83 1815C2017.69 1826.97 2014.52 1839.04 2014 1851z"/>
</svg>
